<?xml version="1.0" encoding="UTF-8"?>
<!--
This file has been modified from the original version by the kanji_colorize.py
script (available at http://github.com/cayennes/kanji-colorize) with these
settings:
    mode: spectrum
    saturation: 0.95
    value: 0.75
    image_size: 327
It remains under a Creative Commons-Attribution-Share Alike 3.0 License.

The original SVG has the following copyright:

Copyright (C) 2009/2010/2011 Ulrich Apel.
This work is distributed under the conditions of the Creative Commons
Attribution-Share Alike 3.0 Licence. This means you are free:
* to Share - to copy, distribute and transmit the work
* to Remix - to adapt the work

Under the following conditions:
* Attribution. You must attribute the work by stating your use of KanjiVG in
  your own copyright header and linking to KanjiVG's website
  (http://kanjivg.tagaini.net)
* Share Alike. If you alter, transform, or build upon this work, you may
  distribute the resulting work only under the same or similar license to this
  one.

See http://creativecommons.org/licenses/by-sa/3.0/ for more details.
-->
<!DOCTYPE svg PUBLIC "-//W3C//DTD SVG 1.0//EN" "http://www.w3.org/TR/2001/REC-SVG-20010904/DTD/svg10.dtd" [
<!ATTLIST g
xmlns:kvg CDATA #FIXED "http://kanjivg.tagaini.net"
kvg:element CDATA #IMPLIED
kvg:variant CDATA #IMPLIED
kvg:partial CDATA #IMPLIED
kvg:original CDATA #IMPLIED
kvg:part CDATA #IMPLIED
kvg:number CDATA #IMPLIED
kvg:tradForm CDATA #IMPLIED
kvg:radicalForm CDATA #IMPLIED
kvg:position CDATA #IMPLIED
kvg:radical CDATA #IMPLIED
kvg:phon CDATA #IMPLIED >
<!ATTLIST path
xmlns:kvg CDATA #FIXED "http://kanjivg.tagaini.net"
kvg:type CDATA #IMPLIED >
]>
<svg xmlns="http://www.w3.org/2000/svg" width="327" height = "327" viewBox="0 0 327 327">
<g id="kvg:StrokePaths_27491" style="fill:none;stroke:#000000;stroke-width:3;stroke-linecap:round;stroke-linejoin:round;" transform="scale(3.0,3.0)">
<g id="kvg:27491" kvg:element="𧒑">
	<g id="kvg:27491-g1" kvg:element="虫" kvg:position="left" kvg:radical="general">
		<g id="kvg:27491-g2" kvg:element="中">
			<g id="kvg:27491-g3" kvg:element="口">
				<path style="stroke: #bf0909;" id="kvg:27491-s1" kvg:type="㇑" d="M13.77,40.46c0.61,0.55,1.05,1.92,1.16,2.65c0.83,5.27,1.68,12.22,2.84,22.2"/>
				<path style="stroke: #bf4209;" id="kvg:27491-s2" kvg:type="㇕b" d="M15.38,41.58c9.29-1.06,15.63-3.09,22.35-3.5c2.62-0.16,2.74,1.68,2.48,4.03c-0.6,5.44-0.97,10.09-2.78,19.08"/>
				<path style="stroke: #bf7c09;" id="kvg:27491-s3" kvg:type="㇐b" d="M18.11,63.68c7.48-1.06,10.06-1.2,20.52-2.18"/>
			</g>
			<g id="kvg:27491-g4" kvg:element="丨">
				<path style="stroke: #bfb509;" id="kvg:27491-s4" kvg:type="㇑a" d="M25.71,18.25c0.75,0.4,1.2,1.81,1.34,2.61c0.15,0.8,0,55.55-0.15,60.57"/>
			</g>
		</g>
		<path style="stroke: #8fbf09;" id="kvg:27491-s5" kvg:type="㇀" d="M14.75,88.34c0.55,0.89,2.38,0.5,2.93,0.27c0.55-0.22,18.68-10.93,22.1-12.7"/>
		<path style="stroke: #56bf09;" id="kvg:27491-s6" kvg:type="㇔" d="M35.07,69.17c2.96,2.55,7.64,10.5,8.38,14.47"/>
	</g>
	<g id="kvg:27491-g5" kvg:element="鼠" kvg:variant="true" kvg:original="鼡" kvg:position="right">
		<g id="kvg:27491-g6" kvg:element="臼" kvg:variant="true" kvg:position="top">
			<path style="stroke: #1cbf09;" id="kvg:27491-s7" kvg:type="㇒" d="M60.25,13.46c0.03,0.27,0.14,0.79-0.06,1.09c-2.67,3.87-7.05,7.7-11.53,10.4"/>
			<path style="stroke: #09bf2f;" id="kvg:27491-s8" kvg:type="㇑" d="M46.87,23.75c0.56,0.5,0.79,1.61,0.93,2.63c0.51,3.73,2.46,15.82,2.97,20.86"/>
			<path style="stroke: #09bf69;" id="kvg:27491-s9" kvg:type="㇕" d="M69.99,18.95c0.66,0.11,1.19,0.34,2.11,0.34s11.4-2.36,12.45-2.48c1.06-0.11,1.93,0.56,1.85,1.25c-0.79,6.58-1.85,19.29-2.64,24.74"/>
			<path style="stroke: #09bfa2;" id="kvg:27491-s10" kvg:type="㇐" d="M49.09,33.88c3.51-1.13,9.72-3.13,10.38-3.13c0.66,0,1.58,0,2.11,0"/>
			<path style="stroke: #09a2bf;" id="kvg:27491-s11" kvg:type="㇐" d="M70.26,29.29c0.66,0.11,1.19,0.34,2.11,0.34c0.92,0,10.43-0.91,11.48-1.02"/>
			<path style="stroke: #0969bf;" id="kvg:27491-s12" kvg:type="㇐" d="M50.54,44.82c7.35-1.32,24.63-4.57,33.27-5.09"/>
		</g>
		<path style="stroke: #092fbf;" id="kvg:27491-s13" kvg:type="㇙" d="M47.92,52.51c0.6,0.46,0.96,2.07,1.08,2.99c0.11,0.83-0.07,28.72-0.07,36.87c0,2.16,0.73,2.07,1.43,1.36c2.43-2.47,7.71-9.24,11.76-12.49"/>
		<path style="stroke: #1c09bf;" id="kvg:27491-s14" kvg:type="㇔" d="M54.54,52.25c1.8,1.01,4.66,4.17,5.11,5.75"/>
		<path style="stroke: #5609bf;" id="kvg:27491-s15" kvg:type="㇔" d="M55.25,68.75c1.8,1.01,4.66,4.17,5.11,5.75"/>
		<path style="stroke: #8f09bf;" id="kvg:27491-s16" kvg:type="㇙" d="M65.21,47.01c0.6,0.46,0.96,2.07,1.08,2.99c0.11,0.83-0.07,34.72-0.07,42.87c0,2.16,0.73,2.07,1.42,1.36c2.43-2.47,9.06-10.73,11.76-12.99"/>
		<path style="stroke: #bf09b5;" id="kvg:27491-s17" kvg:type="㇔" d="M71.12,51.75c1.8,1.01,4.66,4.17,5.11,5.75"/>
		<path style="stroke: #bf097c;" id="kvg:27491-s18" kvg:type="㇔" d="M71.29,67c1.99,1.32,5.15,5.44,5.64,7.5"/>
		<path style="stroke: #bf0942;" id="kvg:27491-s19" kvg:type="㇂" d="M80.46,46.75c0.76,1,1.15,1.27,1.23,3.42c0.57,14.84,4.84,35.75,13.03,43.81c4.07,4.01,3.9,1.01,3.24-9"/>
	</g>
</g>
</g>
<g id="kvg:StrokeNumbers_27491" style="font-size:8;fill:#808080" transform="scale(3.0,3.0)">
	<text style="fill: #bf0909;" transform="matrix(1 0 0 1 7.50 47.50)">1</text>
	<text style="fill: #bf4209;" transform="matrix(1 0 0 1 16.50 37.50)">2</text>
	<text style="fill: #bf7c09;" transform="matrix(1 0 0 1 19.50 60.50)">3</text>
	<text style="fill: #bfb509;" transform="matrix(1 0 0 1 15.54 18.50)">4</text>
	<text style="fill: #8fbf09;" transform="matrix(1 0 0 1 6.50 90.50)">5</text>
	<text style="fill: #56bf09;" transform="matrix(1 0 0 1 38.50 70.50)">6</text>
	<text style="fill: #1cbf09;" transform="matrix(1 0 0 1 54.50 13.50)">7</text>
	<text style="fill: #09bf2f;" transform="matrix(1 0 0 1 40.75 32.25)">8</text>
	<text style="fill: #09bf69;" transform="matrix(1 0 0 1 68.75 16.50)">9</text>
	<text style="fill: #09bfa2;" transform="matrix(1 0 0 1 51.50 29.50)">10</text>
	<text style="fill: #09a2bf;" transform="matrix(1 0 0 1 68.50 28.00)">11</text>
	<text style="fill: #0969bf;" transform="matrix(1 0 0 1 53.50 41.50)">12</text>
	<text style="fill: #092fbf;" transform="matrix(1 0 0 1 40.50 55.50)">13</text>
	<text style="fill: #1c09bf;" transform="matrix(1 0 0 1 50.50 61.50)">14</text>
	<text style="fill: #5609bf;" transform="matrix(1 0 0 1 61.89 76.22)">15</text>
	<text style="fill: #8f09bf;" transform="matrix(1 0 0 1 69.04 56.25)">16</text>
	<text style="fill: #bf09b5;" transform="matrix(1 0 0 1 77.76 59.22)">17</text>
	<text style="fill: #bf097c;" transform="matrix(1 0 0 1 77.30 74.99)">18</text>
	<text style="fill: #bf0942;" transform="matrix(1 0 0 1 84.62 55.84)">19</text>
</g>
</svg>
