<?xml version="1.0" encoding="UTF-8"?>
<!--
This file has been modified from the original version by the kanji_colorize.py
script (available at http://github.com/cayennes/kanji-colorize) with these
settings:
    mode: spectrum
    saturation: 0.95
    value: 0.75
    image_size: 327
It remains under a Creative Commons-Attribution-Share Alike 3.0 License.

The original SVG has the following copyright:

Copyright (C) 2009/2010/2011 Ulrich Apel.
This work is distributed under the conditions of the Creative Commons
Attribution-Share Alike 3.0 Licence. This means you are free:
* to Share - to copy, distribute and transmit the work
* to Remix - to adapt the work

Under the following conditions:
* Attribution. You must attribute the work by stating your use of KanjiVG in
  your own copyright header and linking to KanjiVG's website
  (http://kanjivg.tagaini.net)
* Share Alike. If you alter, transform, or build upon this work, you may
  distribute the resulting work only under the same or similar license to this
  one.

See http://creativecommons.org/licenses/by-sa/3.0/ for more details.
-->
<!DOCTYPE svg PUBLIC "-//W3C//DTD SVG 1.0//EN" "http://www.w3.org/TR/2001/REC-SVG-20010904/DTD/svg10.dtd" [
<!ATTLIST g
xmlns:kvg CDATA #FIXED "http://kanjivg.tagaini.net"
kvg:element CDATA #IMPLIED
kvg:variant CDATA #IMPLIED
kvg:partial CDATA #IMPLIED
kvg:original CDATA #IMPLIED
kvg:part CDATA #IMPLIED
kvg:number CDATA #IMPLIED
kvg:tradForm CDATA #IMPLIED
kvg:radicalForm CDATA #IMPLIED
kvg:position CDATA #IMPLIED
kvg:radical CDATA #IMPLIED
kvg:phon CDATA #IMPLIED >
<!ATTLIST path
xmlns:kvg CDATA #FIXED "http://kanjivg.tagaini.net"
kvg:type CDATA #IMPLIED >
]>
<svg xmlns="http://www.w3.org/2000/svg" width="327" height = "327" viewBox="0 0 327 327">
<g id="kvg:StrokePaths_02ecf" style="fill:none;stroke:#000000;stroke-width:3;stroke-linecap:round;stroke-linejoin:round;" transform="scale(3.0,3.0)">
<g id="kvg:02ecf" kvg:element="⻏" kvg:variant="true" kvg:original="邑" kvg:radical="tradit">
	<path style="stroke: #bf0909;" id="kvg:02ecf-s1" kvg:type="㇇" d="M 73.044237,13.54 c 1.56,0.28 3.41,0.8 5.34,0.48 9,-1.51 17.37,-3.14 20.62,-4.18 3.480003,-1.12 5.320003,1.83 3.900003,4.59 -2.03,3.95 -8.110003,15.24 -10.810003,19.08"/>
	<path style="stroke: #09bf09;" id="kvg:02ecf-s2" kvg:type="㇁" d="M 92.004237,33.75 c 16.000003,11 14.380003,37 -0.83,27.75"/>
	<path style="stroke: #0909bf;" id="kvg:02ecf-s3" kvg:type="㇑" d="M 74.874237,14.5 c 0.75,0.75 0.96,1.62 0.96,2.75 0,0.85 0.02,51.18 0.03,72.38 0,4.28 0,7.37 0,8.62"/>
</g>
</g>
<g id="kvg:StrokeNumbers_02ecf" style="font-size:8;fill:#808080" transform="scale(3.0,3.0)">
	<text style="fill: #bf0909;" transform="matrix(1 0 0 1 67.50 11.25)">1</text>
	<text style="fill: #09bf09;" transform="matrix(1 0 0 1 85.50 38.25)">2</text>
	<text style="fill: #0909bf;" transform="matrix(1 0 0 1 68.50 23.25)">3</text>
</g>
</svg>
