<?xml version="1.0" encoding="UTF-8"?>
<!--
This file has been modified from the original version by the kanji_colorize.py
script (available at http://github.com/cayennes/kanji-colorize) with these
settings:
    mode: spectrum
    saturation: 0.95
    value: 0.75
    image_size: 327
It remains under a Creative Commons-Attribution-Share Alike 3.0 License.

The original SVG has the following copyright:

Copyright (C) 2009/2010/2011 Ulrich Apel.
This work is distributed under the conditions of the Creative Commons
Attribution-Share Alike 3.0 Licence. This means you are free:
* to Share - to copy, distribute and transmit the work
* to Remix - to adapt the work

Under the following conditions:
* Attribution. You must attribute the work by stating your use of KanjiVG in
  your own copyright header and linking to KanjiVG's website
  (http://kanjivg.tagaini.net)
* Share Alike. If you alter, transform, or build upon this work, you may
  distribute the resulting work only under the same or similar license to this
  one.

See http://creativecommons.org/licenses/by-sa/3.0/ for more details.
-->
<!DOCTYPE svg PUBLIC "-//W3C//DTD SVG 1.0//EN" "http://www.w3.org/TR/2001/REC-SVG-20010904/DTD/svg10.dtd" [
<!ATTLIST g
xmlns:kvg CDATA #FIXED "http://kanjivg.tagaini.net"
kvg:element CDATA #IMPLIED
kvg:variant CDATA #IMPLIED
kvg:partial CDATA #IMPLIED
kvg:original CDATA #IMPLIED
kvg:part CDATA #IMPLIED
kvg:number CDATA #IMPLIED
kvg:tradForm CDATA #IMPLIED
kvg:radicalForm CDATA #IMPLIED
kvg:position CDATA #IMPLIED
kvg:radical CDATA #IMPLIED
kvg:phon CDATA #IMPLIED >
<!ATTLIST path
xmlns:kvg CDATA #FIXED "http://kanjivg.tagaini.net"
kvg:type CDATA #IMPLIED >
]>
<svg xmlns="http://www.w3.org/2000/svg" width="327" height = "327" viewBox="0 0 327 327">
<g id="kvg:StrokePaths_030d9" style="fill:none;stroke:#000000;stroke-width:3;stroke-linecap:round;stroke-linejoin:round;" transform="scale(3.0,3.0)">
<g id="kvg:030d9" kvg:element="ベ">
	<path style="stroke: #bf0909;" id="kvg:030d9-s1" d="M15.5,49c2.75,1.5,5.33,0.62,6.88-0.88c4-3.88,9.38-8.5,11.88-11c3.12-3.12,7.23-5.08,11.87-1.12c11.13,9.5,26.25,22.5,36.87,31.12c4.23,3.43,7.62,6.62,11.12,9.25"/>
	<path style="stroke: #09bf09;" id="kvg:030d9-s2" d="M66.88,27c2.75,1.75,6,5.38,7.75,8.5"/>
	<path style="stroke: #0909bf;" id="kvg:030d9-s3" d="M73.26,22.12c3.06,1.57,6.68,4.82,8.62,7.62"/>
</g>
</g>
<g id="kvg:StrokeNumbers_030d9" style="font-size:8;fill:#808080" transform="scale(3.0,3.0)">
	<text style="fill: #bf0909;" transform="matrix(1 0 0 1 11.76 43.63)">1</text>
	<text style="fill: #09bf09;" transform="matrix(1 0 0 1 59.26 26)">2</text>
	<text style="fill: #0909bf;" transform="matrix(1 0 0 1 65.38 21.63)">3</text>
</g>
</svg>
