<?xml version="1.0" encoding="UTF-8"?>
<!--
This file has been modified from the original version by the kanji_colorize.py
script (available at http://github.com/cayennes/kanji-colorize) with these
settings:
    mode: spectrum
    saturation: 0.95
    value: 0.75
    image_size: 327
It remains under a Creative Commons-Attribution-Share Alike 3.0 License.

The original SVG has the following copyright:

Copyright (C) 2009/2010/2011 Ulrich Apel.
This work is distributed under the conditions of the Creative Commons
Attribution-Share Alike 3.0 Licence. This means you are free:
* to Share - to copy, distribute and transmit the work
* to Remix - to adapt the work

Under the following conditions:
* Attribution. You must attribute the work by stating your use of KanjiVG in
  your own copyright header and linking to KanjiVG's website
  (http://kanjivg.tagaini.net)
* Share Alike. If you alter, transform, or build upon this work, you may
  distribute the resulting work only under the same or similar license to this
  one.

See http://creativecommons.org/licenses/by-sa/3.0/ for more details.
-->
<!DOCTYPE svg PUBLIC "-//W3C//DTD SVG 1.0//EN" "http://www.w3.org/TR/2001/REC-SVG-20010904/DTD/svg10.dtd" [
<!ATTLIST g
xmlns:kvg CDATA #FIXED "http://kanjivg.tagaini.net"
kvg:element CDATA #IMPLIED
kvg:variant CDATA #IMPLIED
kvg:partial CDATA #IMPLIED
kvg:original CDATA #IMPLIED
kvg:part CDATA #IMPLIED
kvg:number CDATA #IMPLIED
kvg:tradForm CDATA #IMPLIED
kvg:radicalForm CDATA #IMPLIED
kvg:position CDATA #IMPLIED
kvg:radical CDATA #IMPLIED
kvg:phon CDATA #IMPLIED >
<!ATTLIST path
xmlns:kvg CDATA #FIXED "http://kanjivg.tagaini.net"
kvg:type CDATA #IMPLIED >
]>
<svg xmlns="http://www.w3.org/2000/svg" width="327" height = "327" viewBox="0 0 327 327">
<g id="kvg:StrokePaths_030db" style="fill:none;stroke:#000000;stroke-width:3;stroke-linecap:round;stroke-linejoin:round;" transform="scale(3.0,3.0)">
<g id="kvg:030db" kvg:element="ホ">
	<path style="stroke: #bf0909;" id="kvg:030db-s1" d="M22.63,40.38c2.62,1,4.75,1.71,9.12,1.25c17.75-1.88,29.25-2.75,45.38-3.88c3.74-0.26,7.38-0.12,11.12,0.62"/>
	<path style="stroke: #64bf09;" id="kvg:030db-s2" d="M53.75,17.12c1.38,1.88,1.38,4.5,1.38,7.38c0,2.88-0.12,46.62-0.12,51.88c0,23.12-6.25,11.25-9.75,9.62"/>
	<path style="stroke: #09bfbf;" id="kvg:030db-s3" d="M27.38,59.38c0.5,9.25-1.38,16.62-6.38,21.88"/>
	<path style="stroke: #6409bf;" id="kvg:030db-s4" d="M73.25,52.75c10.88,9.63,15.5,17.63,16.63,24.87"/>
</g>
</g>
<g id="kvg:StrokeNumbers_030db" style="font-size:8;fill:#808080" transform="scale(3.0,3.0)">
	<text style="fill: #bf0909;" transform="matrix(1 0 0 1 16.01 38.25)">1</text>
	<text style="fill: #64bf09;" transform="matrix(1 0 0 1 44.76 15.75)">2</text>
	<text style="fill: #09bfbf;" transform="matrix(1 0 0 1 21.51 57.13)">3</text>
	<text style="fill: #6409bf;" transform="matrix(1 0 0 1 65.51 51.13)">4</text>
</g>
</svg>
