<?xml version="1.0" encoding="UTF-8"?>
<!--
This file has been modified from the original version by the kanji_colorize.py
script (available at http://github.com/cayennes/kanji-colorize) with these
settings:
    mode: spectrum
    saturation: 0.95
    value: 0.75
    image_size: 327
It remains under a Creative Commons-Attribution-Share Alike 3.0 License.

The original SVG has the following copyright:

Copyright (C) 2009/2010/2011 Ulrich Apel.
This work is distributed under the conditions of the Creative Commons
Attribution-Share Alike 3.0 Licence. This means you are free:
* to Share - to copy, distribute and transmit the work
* to Remix - to adapt the work

Under the following conditions:
* Attribution. You must attribute the work by stating your use of KanjiVG in
  your own copyright header and linking to KanjiVG's website
  (http://kanjivg.tagaini.net)
* Share Alike. If you alter, transform, or build upon this work, you may
  distribute the resulting work only under the same or similar license to this
  one.

See http://creativecommons.org/licenses/by-sa/3.0/ for more details.
-->
<!DOCTYPE svg PUBLIC "-//W3C//DTD SVG 1.0//EN" "http://www.w3.org/TR/2001/REC-SVG-20010904/DTD/svg10.dtd" [
<!ATTLIST g
xmlns:kvg CDATA #FIXED "http://kanjivg.tagaini.net"
kvg:element CDATA #IMPLIED
kvg:variant CDATA #IMPLIED
kvg:partial CDATA #IMPLIED
kvg:original CDATA #IMPLIED
kvg:part CDATA #IMPLIED
kvg:number CDATA #IMPLIED
kvg:tradForm CDATA #IMPLIED
kvg:radicalForm CDATA #IMPLIED
kvg:position CDATA #IMPLIED
kvg:radical CDATA #IMPLIED
kvg:phon CDATA #IMPLIED >
<!ATTLIST path
xmlns:kvg CDATA #FIXED "http://kanjivg.tagaini.net"
kvg:type CDATA #IMPLIED >
]>
<svg xmlns="http://www.w3.org/2000/svg" width="327" height = "327" viewBox="0 0 327 327">
<g id="kvg:StrokePaths_05173" style="fill:none;stroke:#000000;stroke-width:3;stroke-linecap:round;stroke-linejoin:round;" transform="scale(3.0,3.0)">
<g id="kvg:05173" kvg:element="关">
	<g id="kvg:05173-g1" kvg:element="丷" kvg:original="八" kvg:radical="general">
		<path style="stroke: #bf0909;" id="kvg:05173-s1" kvg:type="㇔" d="M 35.910208,17.62 c 3.69,2.55 9.54,10.48 10.47,14.44"/>
		<path style="stroke: #bfbf09;" id="kvg:05173-s2" kvg:type="㇒" d="M 69.280208,14.64 c 0.05,0.58 0.22,1.54 -0.1,2.34 -1.65,4.14 -5.03,9.39 -10.9,16.52"/>
	</g>
	<g id="kvg:05173-g2" kvg:element="天">
		<path style="stroke: #09bf09;" id="kvg:05173-s3" kvg:type="㇐" d="M 37.320208,39.34 c 1.96,0.29 3.96,0.31 5.58,0.13 6.28,-0.69 17.97,-2.39 24.4,-3.01 1.98,-0.19 3.88,-0.35 5.84,0.13"/>
		<g id="kvg:05173-g3" kvg:element="大">
			<path style="stroke: #09bfbf;" id="kvg:05173-s4" kvg:type="㇐" d="M 30.270208,61.73 c 3.26,0.77 5.78,0.8 8.64,0.46 12.12,-1.44 26.11,-2.7 35.12,-3.35 3.02,-0.22 6.01,-0.07 8.98,0.64"/>
			<path style="stroke: #0909bf;" id="kvg:05173-s5" kvg:type="㇒" d="M 51.710208,42.12 c 0.6,0.76 0.77,2.38 0.7,3.84 -1.43,27.29 -11.79,41.04 -29.43,47.41"/>
			<path style="stroke: #bf09bf;" id="kvg:05173-s6" kvg:type="㇏" d="M 51.980208,61.89 c 5.79,5.58 15.85,16.6 23.41,23.76 3.14,2.97 6.01,4.84 8.49,6.14"/>
		</g>
	</g>
</g>
</g>
<g id="kvg:StrokeNumbers_05173" style="font-size:8;fill:#808080" transform="scale(3.0,3.0)">
	<text style="fill: #bf0909;" transform="matrix(1 0 0 1 28.53 18.50)">1</text>
	<text style="fill: #bfbf09;" transform="matrix(1 0 0 1 60.80 14.50)">2</text>
	<text style="fill: #09bf09;" transform="matrix(1 0 0 1 32.21 37.20)">3</text>
	<text style="fill: #09bfbf;" transform="matrix(1 0 0 1 30.53 59.50)">4</text>
	<text style="fill: #0909bf;" transform="matrix(1 0 0 1 43.96 49.59)">5</text>
	<text style="fill: #bf09bf;" transform="matrix(1 0 0 1 63.80 70.59)">6</text>
</g>
</svg>
