<?xml version="1.0" encoding="UTF-8"?>
<!--
This file has been modified from the original version by the kanji_colorize.py
script (available at http://github.com/cayennes/kanji-colorize) with these
settings:
    mode: spectrum
    saturation: 0.95
    value: 0.75
    image_size: 327
It remains under a Creative Commons-Attribution-Share Alike 3.0 License.

The original SVG has the following copyright:

Copyright (C) 2009/2010/2011 Ulrich Apel.
This work is distributed under the conditions of the Creative Commons
Attribution-Share Alike 3.0 Licence. This means you are free:
* to Share - to copy, distribute and transmit the work
* to Remix - to adapt the work

Under the following conditions:
* Attribution. You must attribute the work by stating your use of KanjiVG in
  your own copyright header and linking to KanjiVG's website
  (http://kanjivg.tagaini.net)
* Share Alike. If you alter, transform, or build upon this work, you may
  distribute the resulting work only under the same or similar license to this
  one.

See http://creativecommons.org/licenses/by-sa/3.0/ for more details.
-->
<!DOCTYPE svg PUBLIC "-//W3C//DTD SVG 1.0//EN" "http://www.w3.org/TR/2001/REC-SVG-20010904/DTD/svg10.dtd" [
<!ATTLIST g
xmlns:kvg CDATA #FIXED "http://kanjivg.tagaini.net"
kvg:element CDATA #IMPLIED
kvg:variant CDATA #IMPLIED
kvg:partial CDATA #IMPLIED
kvg:original CDATA #IMPLIED
kvg:part CDATA #IMPLIED
kvg:number CDATA #IMPLIED
kvg:tradForm CDATA #IMPLIED
kvg:radicalForm CDATA #IMPLIED
kvg:position CDATA #IMPLIED
kvg:radical CDATA #IMPLIED
kvg:phon CDATA #IMPLIED >
<!ATTLIST path
xmlns:kvg CDATA #FIXED "http://kanjivg.tagaini.net"
kvg:type CDATA #IMPLIED >
]>
<svg xmlns="http://www.w3.org/2000/svg" width="327" height = "327" viewBox="0 0 327 327">
<g id="kvg:StrokePaths_08279" style="fill:none;stroke:#000000;stroke-width:3;stroke-linecap:round;stroke-linejoin:round;" transform="scale(3.0,3.0)">
<g id="kvg:08279" kvg:element="艹" kvg:variant="true" kvg:original="艸" kvg:radical="tradit">
	<path style="stroke: #bf0909;" id="kvg:08279-s1" kvg:type="㇐" d="M13.88,53.73c3.75,1.52,8.45,1.32,13.13,0.86c16.12-1.59,39.17-3.48,54.37-4.13c4.77-0.2,9-0.09,13.75,0.87"/>
	<path style="stroke: #09bf09;" id="kvg:08279-s2" kvg:type="㇑a" d="M35.75,40.12c0.8,1,1.17,2.38,1.44,4c1.36,8.22,2.33,15.75,2.69,18.75"/>
	<path style="stroke: #0909bf;" id="kvg:08279-s3" kvg:type="㇑a" d="M73.51,38.25c0.34,1.09,0.18,2.13-0.2,3.46c-2.23,7.85-3.25,11.77-5.68,19.16"/>
</g>
</g>
<g id="kvg:StrokeNumbers_08279" style="font-size:8;fill:#808080" transform="scale(3.0,3.0)">
	<text style="fill: #bf0909;" transform="matrix(1 0 0 1 6.12 52.25)">1</text>
	<text style="fill: #09bf09;" transform="matrix(1 0 0 1 28.52 42.90)">2</text>
	<text style="fill: #0909bf;" transform="matrix(1 0 0 1 66.40 41.15)">3</text>
</g>
</svg>
