<?xml version="1.0" encoding="UTF-8"?>
<!--
This file has been modified from the original version by the kanji_colorize.py
script (available at http://github.com/cayennes/kanji-colorize) with these
settings:
    mode: spectrum
    saturation: 0.95
    value: 0.75
    image_size: 327
It remains under a Creative Commons-Attribution-Share Alike 3.0 License.

The original SVG has the following copyright:

Copyright (C) 2009/2010/2011 Ulrich Apel.
This work is distributed under the conditions of the Creative Commons
Attribution-Share Alike 3.0 Licence. This means you are free:
* to Share - to copy, distribute and transmit the work
* to Remix - to adapt the work

Under the following conditions:
* Attribution. You must attribute the work by stating your use of KanjiVG in
  your own copyright header and linking to KanjiVG's website
  (http://kanjivg.tagaini.net)
* Share Alike. If you alter, transform, or build upon this work, you may
  distribute the resulting work only under the same or similar license to this
  one.

See http://creativecommons.org/licenses/by-sa/3.0/ for more details.
-->
<!DOCTYPE svg PUBLIC "-//W3C//DTD SVG 1.0//EN" "http://www.w3.org/TR/2001/REC-SVG-20010904/DTD/svg10.dtd" [
<!ATTLIST g
xmlns:kvg CDATA #FIXED "http://kanjivg.tagaini.net"
kvg:element CDATA #IMPLIED
kvg:variant CDATA #IMPLIED
kvg:partial CDATA #IMPLIED
kvg:original CDATA #IMPLIED
kvg:part CDATA #IMPLIED
kvg:number CDATA #IMPLIED
kvg:tradForm CDATA #IMPLIED
kvg:radicalForm CDATA #IMPLIED
kvg:position CDATA #IMPLIED
kvg:radical CDATA #IMPLIED
kvg:phon CDATA #IMPLIED >
<!ATTLIST path
xmlns:kvg CDATA #FIXED "http://kanjivg.tagaini.net"
kvg:type CDATA #IMPLIED >
]>
<svg xmlns="http://www.w3.org/2000/svg" width="327" height = "327" viewBox="0 0 327 327">
<g id="kvg:StrokePaths_0985a" style="fill:none;stroke:#000000;stroke-width:3;stroke-linecap:round;stroke-linejoin:round;" transform="scale(3.0,3.0)">
<g id="kvg:0985a" kvg:element="顚">
	<g id="kvg:0985a-g1" kvg:element="眞" kvg:variant="true" kvg:original="真" kvg:position="left">
		<g id="kvg:0985a-g2" kvg:element="匕" kvg:position="top">
			<path style="stroke: #bf0909;" id="kvg:0985a-s1" kvg:type="㇀" d="M46.12,12.75c-0.3,0.74-0.59,1.12-1.21,1.44c-4.01,2.09-16.15,7.85-29.12,9.99"/>
			<path style="stroke: #bf4209;" id="kvg:0985a-s2" kvg:type="㇟" d="M13.81,12.5c0.76,0.71,0.81,1.19,1.06,2.15c0.25,0.95-0.18,5.35-0.18,8.34c0,7.68,11.87,6.45,20.52,6.45c12.55,0,18.44-1.26,18.44-9.33"/>
		</g>
		<g id="kvg:0985a-g3" kvg:element="具" kvg:position="bottom">
			<g id="kvg:0985a-g4" kvg:element="目" kvg:position="top">
				<path style="stroke: #bf7c09;" id="kvg:0985a-s3" kvg:type="㇑" d="M23.44,37.22c0.32,0.74,0.79,2.1,0.79,3.1s-0.1,30.97,0,31.96"/>
				<path style="stroke: #bfb509;" id="kvg:0985a-s4" kvg:type="㇕a" d="M24.76,39.28c1.81-0.12,16.99-2.37,18.64-2.34c0.76,0.02,1.5,0.49,1.5,2.09c0,1.19,0.03,31.75-0.08,32.49"/>
				<path style="stroke: #8fbf09;" id="kvg:0985a-s5" kvg:type="㇐a" d="M24.3,49.01c3.45-0.16,6.91-0.69,10.34-1.09c1.06-0.12,2.11-0.24,3.12-0.36"/>
				<path style="stroke: #56bf09;" id="kvg:0985a-s6" kvg:type="㇐a" d="M24.17,59.01c3.42-0.3,7.33-0.75,10.75-1.14c0.98-0.11,1.96-0.22,2.91-0.31"/>
				<path style="stroke: #1cbf09;" id="kvg:0985a-s7" kvg:type="㇐a" d="M24.33,69.65c3.59,0,15.61-2.07,20.26-2.07"/>
			</g>
			<g id="kvg:0985a-g5" kvg:position="bottom">
				<path style="stroke: #09bf2f;" id="kvg:0985a-s8" kvg:type="㇗" d="M11.31,45.23c0.49,1.01,1.14,1.77,1.14,3.53c0,1.77-1.53,26.77-1.95,30.09c-0.29,2.26,1.88,2.56,3.66,2.25c11.58-1.99,28.1-3.01,35.96-3.03c1.46,0,3.25,0.25,4.38,0.5"/>
				<g id="kvg:0985a-g6" kvg:element="八">
					<path style="stroke: #09bf69;" id="kvg:0985a-s9" kvg:type="㇒" d="M24.28,85.02c0.04,0.32,0.09,0.82-0.08,1.27c-1,2.68-6.76,8.57-14.64,12.17"/>
					<path style="stroke: #09bfa2;" id="kvg:0985a-s10" kvg:type="㇏" d="M39.49,84.21c3.83,2.02,9.9,8.32,10.86,11.47"/>
				</g>
			</g>
		</g>
	</g>
	<g id="kvg:0985a-g7" kvg:element="頁" kvg:position="right" kvg:radical="general">
		<path style="stroke: #09a2bf;" id="kvg:0985a-s11" kvg:type="㇐" d="M57.45,18.35c1,0.5,2.84,0.57,3.85,0.5c8.3-0.58,24.63-3.08,31.09-3.32c1.67-0.06,2.68,0.24,3.51,0.49"/>
		<path style="stroke: #0969bf;" id="kvg:0985a-s12" kvg:type="㇒" d="M75.23,20.43c0.01,0.31,0.03,0.8-0.02,1.24c-0.31,2.62-3.42,8.36-5.88,11.87"/>
		<g id="kvg:0985a-g8" kvg:element="貝" kvg:position="bottom">
			<g id="kvg:0985a-g9" kvg:element="目" kvg:position="top">
				<path style="stroke: #092fbf;" id="kvg:0985a-s13" kvg:type="㇑" d="M60.66,33.8c0.45,1.08,1.11,1.88,1.11,3.32c0,1.44-0.65,41.84-0.5,43.28"/>
				<path style="stroke: #1c09bf;" id="kvg:0985a-s14" kvg:type="㇕" d="M63.03,35.23c2.56-0.18,23.24-2.86,25.58-3.08c1.94-0.18,3.48,1.99,3.31,3.32c-0.21,1.69-0.9,43.75-0.9,44.83"/>
				<path style="stroke: #5609bf;" id="kvg:0985a-s15" kvg:type="㇐" d="M61.99,49.32c4.62,0,9.29-0.62,13.89-1.01c1.54-0.13,3.08-0.27,4.59-0.4"/>
				<path style="stroke: #8f09bf;" id="kvg:0985a-s16" kvg:type="㇐" d="M61.69,63.44c5.18-0.27,10.36-0.64,15.53-1.02c1.34-0.1,2.66-0.19,3.94-0.29"/>
				<path style="stroke: #bf09b5;" id="kvg:0985a-s17" kvg:type="㇐" d="M61.86,77.79c6.39-0.54,21.01-1.5,28.46-2.04"/>
			</g>
			<g id="kvg:0985a-g10" kvg:element="八">
				<path style="stroke: #bf097c;" id="kvg:0985a-s18" kvg:type="㇒" d="M68.16,82.48c0.39,1.31,0.28,2.67-0.5,3.63C65.3,88.99,59,94.5,52.71,98.5"/>
				<path style="stroke: #bf0942;" id="kvg:0985a-s19" kvg:type="㇏" d="M84.32,84.62c4.78,3.51,10.43,9.89,11.73,12.96"/>
			</g>
		</g>
	</g>
</g>
</g>
<g id="kvg:StrokeNumbers_0985a" style="font-size:8;fill:#808080" transform="scale(3.0,3.0)">
	<text style="fill: #bf0909;" transform="matrix(1 0 0 1 40.25 12.13)">1</text>
	<text style="fill: #bf4209;" transform="matrix(1 0 0 1 7.00 14.25)">2</text>
	<text style="fill: #bf7c09;" transform="matrix(1 0 0 1 17.50 43.50)">3</text>
	<text style="fill: #bfb509;" transform="matrix(1 0 0 1 26.50 36.50)">4</text>
	<text style="fill: #8fbf09;" transform="matrix(1 0 0 1 27.50 46.50)">5</text>
	<text style="fill: #56bf09;" transform="matrix(1 0 0 1 27.50 56.50)">6</text>
	<text style="fill: #1cbf09;" transform="matrix(1 0 0 1 27.50 67.50)">7</text>
	<text style="fill: #09bf2f;" transform="matrix(1 0 0 1 5.50 47.50)">8</text>
	<text style="fill: #09bf69;" transform="matrix(1 0 0 1 16.50 88.50)">9</text>
	<text style="fill: #09bfa2;" transform="matrix(1 0 0 1 30.50 89.50)">10</text>
	<text style="fill: #09a2bf;" transform="matrix(1 0 0 1 56.50 15.50)">11</text>
	<text style="fill: #0969bf;" transform="matrix(1 0 0 1 64.50 26.50)">12</text>
	<text style="fill: #092fbf;" transform="matrix(1 0 0 1 52.06 42.50)">13</text>
	<text style="fill: #1c09bf;" transform="matrix(1 0 0 1 59.50 32.50)">14</text>
	<text style="fill: #5609bf;" transform="matrix(1 0 0 1 66.50 45.50)">15</text>
	<text style="fill: #8f09bf;" transform="matrix(1 0 0 1 66.50 59.50)">16</text>
	<text style="fill: #bf09b5;" transform="matrix(1 0 0 1 66.50 74.50)">17</text>
	<text style="fill: #bf097c;" transform="matrix(1 0 0 1 54.50 89.50)">18</text>
	<text style="fill: #bf0942;" transform="matrix(1 0 0 1 74.50 90.50)">19</text>
</g>
</svg>
